<?xml version="1.0" standalone="no"?>
<!DOCTYPE svg PUBLIC "-//W3C//DTD SVG 20010904//EN"
 "http://www.w3.org/TR/2001/REC-SVG-20010904/DTD/svg10.dtd">
<svg version="1.0" xmlns="http://www.w3.org/2000/svg"
 width="500.000000pt" height="500.000000pt" viewBox="0 0 500.000000 500.000000"
 preserveAspectRatio="xMidYMid meet">

<g transform="translate(0.000000,500.000000) scale(0.100000,-0.100000)"
fill="#000000" stroke="none">
<path d="M2480 4295 c0 -37 4 -65 10 -65 6 0 10 20 10 45 0 25 3 45 8 45 4 0
21 -21 37 -45 42 -63 55 -59 55 20 0 75 -17 89 -22 18 l-3 -48 -34 48 c-48 66
-61 62 -61 -18z"/>
<path d="M2536 4099 c-3 -19 -10 -79 -16 -134 -6 -55 -13 -116 -16 -136 l-5
-36 -85 -12 c-46 -6 -90 -14 -97 -17 -9 -3 -19 12 -30 43 l-16 48 6 -40 c3
-22 6 -44 7 -49 0 -4 -21 -16 -49 -26 -27 -9 -73 -29 -102 -44 -29 -14 -54
-26 -57 -26 -2 0 -18 23 -36 50 -42 66 -48 64 -10 -3 l30 -54 -91 -67 -91 -68
-26 24 c-15 13 -72 64 -127 114 l-100 89 89 -100 c50 -55 101 -112 114 -127
l24 -26 -68 -91 -67 -91 -54 30 c-67 38 -69 32 -3 -10 28 -18 50 -34 50 -36 0
-3 -12 -28 -26 -57 -15 -29 -35 -74 -44 -102 -10 -27 -22 -49 -26 -49 -5 1
-27 4 -49 7 l-40 6 48 -16 c29 -10 46 -22 43 -29 -3 -7 -10 -50 -17 -96 -6
-45 -13 -84 -14 -86 -1 -2 -75 -11 -164 -21 -89 -10 -165 -21 -168 -25 -4 -3
0 -6 8 -7 8 0 84 -8 169 -17 l155 -18 12 -74 c6 -41 13 -86 15 -99 3 -20 -4
-26 -47 -42 -41 -15 -44 -18 -15 -13 19 3 45 8 58 11 17 4 22 1 22 -13 0 -11
16 -55 36 -99 19 -44 37 -84 40 -90 2 -5 -16 -23 -41 -38 -60 -38 -57 -43 6
-11 28 14 52 24 53 22 16 -30 82 -120 101 -138 14 -13 25 -28 25 -33 0 -6 -37
-51 -82 -101 -130 -144 -130 -146 -4 -34 l119 107 45 -40 c25 -21 64 -51 87
-66 l43 -27 -29 -58 c-16 -32 -27 -58 -25 -58 2 0 18 23 36 51 18 29 36 48 43
45 65 -29 185 -76 195 -76 8 0 11 -7 8 -17 -2 -10 -7 -34 -10 -53 -4 -29 -3
-27 11 13 14 41 20 47 39 43 11 -3 54 -10 94 -16 41 -6 75 -12 77 -14 2 -2 12
-76 23 -166 10 -89 21 -164 23 -166 6 -6 13 47 28 193 7 68 15 127 19 133 5 8
85 23 174 33 14 1 23 -10 38 -48 13 -36 17 -41 14 -19 -3 18 -8 43 -11 56 -6
22 -2 26 37 37 24 7 72 26 108 43 62 28 66 28 77 11 33 -49 42 -55 23 -15 -12
24 -20 45 -18 46 2 2 25 18 53 36 27 19 65 48 85 66 l36 33 124 -112 125 -112
-112 126 -112 126 20 19 c17 15 71 86 115 152 1 2 22 -6 46 -17 23 -12 34 -15
23 -7 -11 8 -28 21 -38 28 -17 13 -16 17 11 78 17 36 36 84 43 108 12 41 14
43 43 37 71 -15 79 -14 34 2 -26 10 -49 20 -51 23 -2 3 3 48 12 100 l16 94
155 18 c85 9 161 17 169 17 8 1 12 4 8 7 -3 4 -79 15 -168 25 -89 10 -163 19
-164 21 -2 2 -8 37 -14 78 -7 41 -14 84 -17 96 -4 17 3 23 43 37 40 14 42 15
13 11 -19 -3 -42 -7 -51 -10 -11 -3 -20 11 -33 53 -10 32 -29 79 -42 105 -13
26 -24 49 -24 52 0 2 23 18 50 36 28 18 50 34 50 36 0 2 -26 -9 -58 -25 l-58
-29 -21 37 c-12 20 -42 60 -67 87 l-45 51 111 124 c61 68 98 112 82 98 -16
-14 -70 -62 -120 -107 -50 -45 -95 -82 -101 -82 -5 0 -18 10 -29 21 -10 12
-47 41 -81 66 l-63 44 25 50 c32 62 25 64 -11 3 -15 -25 -32 -43 -38 -40 -6 2
-47 21 -91 40 -44 20 -88 36 -99 36 -14 0 -17 5 -13 23 3 12 8 38 11 57 5 29
2 26 -13 -15 -14 -38 -23 -49 -37 -48 -148 20 -175 27 -179 47 -2 12 -11 86
-20 165 -8 80 -17 147 -20 149 -2 2 -6 -11 -9 -29z m4 -584 c0 -372 -3 -476
-12 -479 -7 -2 -27 -8 -45 -13 -25 -9 -35 -8 -43 2 -8 10 3 140 41 489 29 262
54 476 56 476 2 0 3 -214 3 -475z m-42 233 c-2 -18 -11 -24 -43 -29 l-40 -6
38 -2 c35 -1 37 -2 37 -36 0 -33 -2 -35 -32 -36 -32 -2 -33 -2 -4 -6 l28 -5
-6 -71 c-14 -148 -14 -147 -55 -147 -20 0 -41 -4 -46 -8 -6 -4 -37 -19 -69
-32 -59 -23 -68 -29 -131 -82 l-32 -28 -38 30 c-56 44 -59 41 -15 -15 l30 -38
-28 -32 c-53 -63 -59 -72 -82 -131 -13 -32 -28 -63 -32 -68 -4 -6 -8 -27 -8
-47 0 -41 1 -41 -147 -55 l-73 -7 -1 29 -1 29 -7 -30 c-5 -25 -11 -31 -40 -33
l-34 -3 6 68 c3 41 2 56 -3 38 -4 -16 -8 -47 -9 -67 -1 -28 -6 -38 -22 -43
-11 -4 -22 -5 -25 -2 -2 2 1 39 7 82 55 398 371 723 767 790 112 19 114 19
110 -7z m271 -9 c91 -21 221 -78 298 -130 69 -47 188 -164 238 -234 86 -120
137 -248 160 -400 7 -49 12 -92 10 -93 -2 -2 -13 -1 -24 3 -15 4 -21 16 -23
38 l-1 32 -4 -32 c-4 -30 -7 -33 -39 -33 -30 0 -34 3 -35 28 -2 23 -2 24 -6 5
-3 -16 -12 -23 -26 -23 -30 0 -191 20 -195 25 -2 1 -4 18 -4 36 -1 19 -4 36
-7 39 -8 7 -51 113 -51 127 0 6 -4 13 -9 15 -5 2 -25 25 -45 51 l-37 48 26 31
c37 44 23 47 -27 6 -64 -52 -65 -52 -108 -21 -42 30 -48 44 -27 61 9 8 24 2
56 -24 51 -39 70 -46 26 -8 -66 57 -76 64 -85 64 -6 0 -18 4 -28 10 -54 30
-110 50 -138 50 -36 0 -32 -13 -52 153 l-9 67 31 2 31 1 -32 4 c-30 4 -33 7
-33 38 0 32 2 34 38 38 l37 4 -42 1 c-39 2 -43 4 -43 28 0 24 2 25 48 19 26
-4 85 -15 131 -26z m-309 -348 c0 -23 -14 -41 -30 -41 -17 0 -34 33 -22 44 9
10 52 7 52 -3z m220 -17 c0 -21 -4 -25 -22 -22 -15 2 -24 11 -26 26 -3 18 1
22 22 22 21 0 26 -5 26 -26z m-285 -5 c4 -11 5 -22 3 -24 -10 -10 -112 -43
-120 -39 -21 13 -3 37 45 59 63 30 64 30 72 4z m370 -3 c56 -26 61 -31 46 -55
-7 -11 -18 -10 -65 9 -52 22 -69 44 -49 63 9 9 5 10 68 -17z m-495 -70 c0 -12
-72 -66 -88 -66 -5 0 -15 6 -21 14 -9 11 -2 21 36 49 35 26 51 33 60 25 7 -6
13 -16 13 -22z m175 24 c-3 -5 -10 -10 -16 -10 -5 0 -9 5 -9 10 0 6 7 10 16
10 8 0 12 -4 9 -10z m225 0 c0 -5 -7 -10 -15 -10 -8 0 -15 5 -15 10 0 6 7 10
15 10 8 0 15 -4 15 -10z m-263 -6 c-15 -15 -107 -52 -107 -43 0 5 19 18 43 29
41 18 76 26 64 14z m352 -20 c19 -8 32 -17 28 -20 -7 -8 -107 29 -107 39 0 9
25 3 79 -19z m-325 -101 c-7 -60 -13 -118 -14 -131 0 -22 -4 -20 -60 24 -34
26 -77 62 -97 79 l-37 32 49 33 c49 34 127 69 156 70 14 0 14 -11 3 -107z
m324 67 c44 -22 85 -46 91 -54 9 -11 -8 -29 -84 -90 -52 -42 -95 -73 -95 -69
0 11 -18 165 -25 216 -7 49 9 49 113 -3z m-468 1 c0 -4 -18 -20 -40 -35 -51
-33 -53 -18 -3 17 42 30 43 30 43 18z m570 -30 c14 -11 22 -23 18 -26 -7 -8
-78 45 -78 58 0 9 24 -4 60 -32z m-709 -16 c3 2 60 -51 127 -118 111 -111 121
-124 109 -141 -12 -17 -21 -8 -106 98 -51 64 -95 116 -97 116 -2 0 -16 -18
-30 -40 -15 -22 -31 -40 -36 -40 -12 0 4 29 37 64 24 26 25 30 11 45 -12 11
-16 12 -16 2 0 -18 -53 -91 -66 -91 -6 0 -16 6 -22 13 -15 18 55 112 73 97 6
-5 14 -8 16 -5z m656 -112 c-117 -117 -128 -126 -143 -111 -15 15 -5 25 122
127 77 61 141 111 144 111 3 0 -52 -57 -123 -127z m210 60 c17 -25 12 -53 -10
-53 -7 0 -27 20 -44 44 -29 40 -30 45 -15 60 18 18 23 13 69 -51z m-63 -33
c14 -22 23 -40 19 -40 -8 0 -63 65 -63 74 0 17 21 1 44 -34z m-660 -110 c44
-56 46 -60 24 -60 -13 -1 -71 -7 -130 -14 -88 -10 -108 -10 -108 1 0 26 38
111 70 158 l33 49 32 -37 c17 -20 53 -63 79 -97z m634 103 c29 -42 69 -124 76
-159 l7 -30 -118 13 c-65 7 -124 14 -130 16 -12 2 124 186 139 187 4 0 15 -12
26 -27z m-854 -21 c8 -13 -35 -122 -48 -122 -6 0 -17 4 -25 9 -11 7 -9 19 12
65 24 51 47 70 61 48z m997 -37 c22 -51 22 -78 -2 -83 -17 -3 -65 100 -54 118
14 22 37 8 56 -35z m-971 -25 c-11 -21 -20 -46 -20 -55 0 -8 -5 -15 -11 -15
-11 0 -7 21 17 78 7 17 18 32 24 32 6 0 2 -17 -10 -40z m909 -11 c13 -28 20
-54 17 -57 -8 -7 -7 -7 -33 56 -27 67 -13 68 16 1z m-385 -39 c55 -27 88 -78
93 -143 12 -152 -170 -244 -284 -144 -68 60 -83 147 -38 224 46 78 144 105
229 63z m-610 -16 c32 -12 13 -54 -25 -54 -10 0 -12 43 -2 53 8 8 8 8 27 1z
m1092 -19 c8 -32 2 -39 -25 -30 -34 10 -25 50 11 54 4 1 10 -10 14 -24z
m-1036 -4 c0 -6 -4 -13 -10 -16 -5 -3 -10 1 -10 9 0 9 5 16 10 16 6 0 10 -4
10 -9z m970 -12 c0 -5 -4 -9 -10 -9 -5 0 -10 7 -10 16 0 8 5 12 10 9 6 -3 10
-10 10 -16z m178 -39 c251 -28 464 -52 472 -54 8 -2 -201 -4 -465 -5 l-480 -1
-11 44 c-11 50 -8 66 12 66 8 0 221 -23 472 -50z m-862 -115 c8 -34 7 -48 -1
-55 -8 -6 -179 9 -491 44 l-479 54 480 1 480 1 11 -45z m-694 -37 l1 -43 4 38
c4 35 6 37 39 37 31 0 34 -2 36 -32 l1 -33 4 31 4 30 67 -8 c165 -20 152 -16
152 -52 0 -18 14 -60 30 -94 17 -34 30 -69 30 -76 0 -8 4 -16 9 -18 5 -1 25
-24 44 -49 l35 -47 -30 -36 c-39 -47 -32 -54 15 -15 l36 30 48 -37 c26 -20 50
-40 51 -45 2 -5 9 -9 15 -9 14 0 120 -43 127 -51 3 -3 20 -6 39 -7 18 0 35 -2
37 -5 2 -2 9 -50 15 -106 10 -87 10 -104 -2 -112 -11 -7 -11 -9 4 -9 13 0 17
-8 17 -35 0 -31 -3 -35 -27 -36 l-28 -1 30 -7 c20 -4 31 -13 33 -27 3 -20 0
-20 -64 -12 -205 24 -379 107 -533 253 -161 153 -253 339 -286 578 -6 45 -5
47 19 47 24 0 26 -4 28 -42z m1806 -35 c-12 -105 -65 -255 -124 -355 -89 -149
-263 -305 -420 -374 -73 -32 -185 -62 -268 -72 -65 -8 -66 -8 -66 15 0 19 6
23 33 24 30 2 30 2 5 6 -24 4 -28 9 -28 39 0 25 4 34 18 35 14 1 14 2 1 6 -14
3 -14 15 -3 110 7 58 15 107 18 110 2 2 19 5 37 5 19 1 36 4 39 7 7 9 113 51
128 51 6 0 12 4 12 8 0 4 22 24 49 45 l50 37 31 -26 c40 -34 50 -24 16 16
l-26 31 37 50 c21 27 41 49 45 49 4 0 8 6 8 12 0 15 42 121 51 128 3 3 6 20 7
39 0 18 3 35 5 37 3 3 52 11 111 18 105 12 106 12 107 -8 2 -19 2 -19 6 2 4
18 11 22 38 22 31 0 34 -3 38 -32 4 -32 4 -32 5 5 2 32 5 37 25 37 23 0 23 -1
15 -77z m-1440 10 c3 -19 -1 -23 -22 -23 -21 0 -26 5 -26 26 0 21 4 25 23 22
14 -2 23 -11 25 -25z m1080 5 c-4 -30 -48 -39 -48 -10 0 10 3 22 7 25 3 4 15
7 25 7 14 0 19 -6 16 -22z m-1038 -3 c0 -8 -4 -15 -10 -15 -5 0 -10 7 -10 15
0 8 5 15 10 15 6 0 10 -7 10 -15z m135 0 c39 -3 84 -9 102 -12 l32 -5 -76 -94
c-60 -76 -78 -92 -89 -83 -20 16 -94 167 -94 191 0 16 5 19 28 14 15 -2 59 -8
97 -11z m805 5 c0 -23 -43 -122 -70 -159 -38 -52 -38 -67 -1 -21 16 19 32 32
35 29 3 -3 -10 -24 -30 -48 -30 -35 -34 -44 -23 -57 11 -13 14 -11 25 13 21
47 50 77 68 70 9 -4 16 -12 16 -19 0 -24 -59 -87 -80 -85 -11 1 -75 56 -142
124 -112 112 -121 124 -107 139 15 14 24 5 109 -101 51 -64 94 -114 97 -111 2
2 -32 48 -76 102 -44 54 -78 100 -76 102 3 3 170 24 243 31 6 0 12 -3 12 -9z
m30 1 c0 -6 -4 -13 -10 -16 -5 -3 -10 1 -10 9 0 9 5 16 10 16 6 0 10 -4 10 -9z
m-947 -82 c21 -58 16 -79 -6 -27 -23 55 -29 78 -20 78 5 0 16 -23 26 -51z
m937 45 c0 -14 -43 -104 -50 -104 -5 0 2 25 13 55 12 30 25 55 30 55 4 0 7 -3
7 -6z m-970 -60 c19 -47 20 -58 9 -65 -23 -14 -33 -5 -56 51 -23 58 -22 70 6
70 12 0 25 -18 41 -56z m369 43 c8 -11 -16 -35 -119 -117 -72 -57 -130 -105
-130 -106 0 -2 20 -17 45 -35 25 -18 45 -39 45 -46 0 -27 -30 -24 -74 8 -36
25 -43 35 -35 46 6 7 8 13 3 13 -5 0 47 56 116 125 69 69 128 125 131 125 4 0
12 -6 18 -13z m661 -6 c0 -32 -38 -111 -54 -111 -27 0 -28 20 -6 76 16 38 28
54 41 54 12 0 19 -7 19 -19z m-484 -511 l-54 -475 -1 476 -1 475 43 10 c29 7
46 6 54 -1 10 -8 2 -110 -41 -485z m-177 358 c7 -62 15 -121 18 -132 4 -16 1
-18 -23 -12 -40 10 -144 60 -174 85 l-25 20 25 19 c14 11 57 45 95 76 39 31
71 56 71 56 1 0 7 -51 13 -112z m388 -5 l63 -51 -37 -31 c-20 -17 -39 -28 -42
-25 -3 3 10 19 29 35 47 39 33 36 -29 -5 -46 -31 -147 -73 -156 -65 -2 2 3 56
10 119 8 63 14 121 15 128 0 14 21 -1 147 -105z m-664 33 c29 -37 32 -46 18
-46 -4 0 -20 18 -35 40 -32 49 -21 53 17 6z m-29 -26 c24 -37 26 -70 4 -70
-21 0 -72 75 -64 95 10 26 32 17 60 -25z m132 -77 c18 -16 34 -32 34 -36 0
-10 -79 45 -80 56 0 12 10 8 46 -20z m670 -15 c9 -15 -64 -80 -86 -76 -26 5
-17 36 19 63 38 28 56 31 67 13z m-517 -65 c2 -2 2 -6 -1 -9 -8 -7 -108 36
-108 47 0 6 94 -26 109 -38z m379 31 c-11 -11 -108 -44 -108 -36 0 8 102 51
109 45 2 -2 2 -5 -1 -9z m-439 -45 c82 -35 60 -77 -24 -44 -49 18 -60 29 -51
50 7 20 14 19 75 -6z m469 -2 c3 -12 -9 -23 -43 -37 -59 -25 -85 -26 -85 -1 0
13 15 25 48 39 55 24 75 24 80 -1z m-368 3 c0 -5 -4 -10 -9 -10 -6 0 -13 5
-16 10 -3 6 1 10 9 10 9 0 16 -4 16 -10z m215 0 c-3 -5 -10 -10 -16 -10 -5 0
-9 5 -9 10 0 6 7 10 16 10 8 0 12 -4 9 -10z m-211 -46 c10 -26 7 -34 -11 -34
-28 0 -44 15 -37 33 8 21 40 22 48 1z m226 -3 c0 -17 -18 -31 -41 -31 -10 0
-12 33 -2 43 14 15 43 7 43 -12z"/>
<path d="M2325 3695 c-53 -17 -34 -18 35 0 30 7 44 13 30 13 -14 0 -43 -5 -65
-13z"/>
<path d="M2240 3670 c-18 -12 -2 -12 25 0 13 6 15 9 5 9 -8 0 -22 -4 -30 -9z"/>
<path d="M2190 3650 c-8 -5 -10 -10 -5 -10 6 0 17 5 25 10 8 5 11 10 5 10 -5
0 -17 -5 -25 -10z"/>
<path d="M2060 3579 c-108 -70 -237 -207 -289 -306 -23 -44 -3 -22 34 38 53
87 155 191 244 250 81 54 87 59 79 59 -3 0 -33 -18 -68 -41z"/>
<path d="M2039 3463 c-13 -16 -12 -17 4 -4 9 7 17 15 17 17 0 8 -8 3 -21 -13z"/>
<path d="M1969 3403 l-34 -38 38 34 c34 33 42 41 34 41 -2 0 -19 -17 -38 -37z"/>
<path d="M2034 3409 c-3 -6 1 -18 10 -27 13 -13 18 -14 28 -3 11 10 9 11 -6 5
-13 -5 -17 -4 -12 4 4 7 2 12 -4 12 -6 0 -8 5 -5 10 3 6 4 10 1 10 -3 0 -8 -5
-12 -11z"/>
<path d="M1980 3356 c0 -2 8 -10 18 -17 15 -13 16 -12 3 4 -13 16 -21 21 -21
13z"/>
<path d="M1904 3328 l-19 -23 23 19 c21 18 27 26 19 26 -2 0 -12 -10 -23 -22z"/>
<path d="M1726 3185 c-9 -26 -7 -32 5 -12 6 10 9 21 6 23 -2 3 -7 -2 -11 -11z"/>
<path d="M1701 3119 c-6 -18 -11 -37 -10 -43 0 -6 7 7 15 28 8 22 12 41 10 43
-2 2 -9 -10 -15 -28z"/>
<path d="M1681 3044 c0 -11 3 -14 6 -6 3 7 2 16 -1 19 -3 4 -6 -2 -5 -13z"/>
<path d="M2730 3695 c30 -8 60 -14 65 -14 20 2 -71 27 -95 27 -14 0 0 -6 30
-13z"/>
<path d="M2871 3656 c10 -9 129 -66 129 -61 0 5 -116 65 -126 65 -4 0 -5 -2
-3 -4z"/>
<path d="M3015 3584 c6 -6 36 -30 68 -54 32 -24 86 -73 119 -109 37 -40 48
-49 28 -23 -38 50 -140 144 -190 174 -19 12 -30 17 -25 12z"/>
<path d="M3045 3460 c10 -11 20 -20 23 -20 3 0 -3 9 -13 20 -10 11 -20 20 -23
20 -3 0 3 -9 13 -20z"/>
<path d="M3029 3383 c-8 -9 -9 -14 -2 -10 7 5 13 -1 16 -15 3 -17 5 -14 6 10
1 37 -1 39 -20 15z"/>
<path d="M3165 3340 c10 -11 20 -20 23 -20 3 0 -3 9 -13 20 -10 11 -20 20 -23
20 -3 0 3 -9 13 -20z"/>
<path d="M3267 3339 c6 -8 30 -48 53 -89 23 -41 39 -66 35 -55 -11 33 -75 144
-88 151 -9 6 -9 5 0 -7z"/>
<path d="M3094 3322 c-9 -5 -8 -11 2 -20 8 -7 14 -11 14 -8 0 2 3 11 6 20 6
17 -3 21 -22 8z"/>
<path d="M3360 3168 c1 -15 49 -149 50 -137 0 17 -40 139 -46 139 -2 0 -4 -1
-4 -2z"/>
<path d="M3412 2985 c0 -16 2 -22 5 -12 2 9 2 23 0 30 -3 6 -5 -1 -5 -18z"/>
<path d="M3331 2984 c0 -11 3 -14 6 -6 3 7 2 16 -1 19 -3 4 -6 -2 -5 -13z"/>
<path d="M2463 2960 c-42 -25 -63 -68 -63 -125 0 -83 50 -136 134 -142 116 -9
191 106 140 213 -33 70 -140 98 -211 54z m122 -90 c23 -25 13 -67 -20 -82 -52
-23 -100 46 -59 86 21 22 57 20 79 -4z"/>
<path d="M1672 2680 c0 -24 25 -115 27 -95 0 6 -6 35 -14 65 -7 30 -13 44 -13
30z"/>
<path d="M1751 2684 c0 -11 3 -14 6 -6 3 7 2 16 -1 19 -3 4 -6 -2 -5 -13z"/>
<path d="M1720 2506 c0 -10 60 -126 65 -126 3 0 -9 28 -26 63 -33 65 -39 75
-39 63z"/>
<path d="M1954 2378 c-4 -6 -3 -8 4 -4 6 3 12 -3 14 -16 3 -21 4 -21 18 -3 9
11 10 16 3 11 -8 -4 -13 -1 -13 8 0 19 -16 21 -26 4z"/>
<path d="M1807 2342 c48 -89 217 -238 340 -301 70 -35 63 -23 -10 17 -131 72
-241 169 -330 292 -17 24 -17 24 0 -8z"/>
<path d="M1920 2325 c13 -14 26 -25 28 -25 3 0 -5 11 -18 25 -13 14 -26 25
-28 25 -3 0 5 -11 18 -25z"/>
<path d="M2024 2306 c-19 -15 -19 -15 0 -12 11 2 22 8 24 14 5 16 0 15 -24 -2z"/>
<path d="M2070 2265 c-7 -9 -11 -17 -9 -20 3 -2 10 5 17 15 14 24 10 26 -8 5z"/>
<path d="M2081 2238 c-1 -20 14 -24 25 -6 4 6 3 8 -4 4 -5 -3 -13 0 -15 6 -3
8 -6 6 -6 -4z"/>
<path d="M2060 2196 c0 -2 8 -10 18 -17 15 -13 16 -12 3 4 -13 16 -21 21 -21
13z"/>
<path d="M2164 2126 c11 -9 24 -16 30 -16 12 0 7 5 -24 19 -24 11 -24 11 -6
-3z"/>
<path d="M2348 2053 c7 -3 16 -2 19 1 4 3 -2 6 -13 5 -11 0 -14 -3 -6 -6z"/>
<path d="M2398 2043 c7 -3 16 -2 19 1 4 3 -2 6 -13 5 -11 0 -14 -3 -6 -6z"/>
<path d="M2236 2005 c17 -7 44 -16 60 -20 25 -4 24 -3 -6 8 -19 8 -46 17 -60
20 -19 5 -17 3 6 -8z"/>
<path d="M2338 1973 c7 -3 16 -2 19 1 4 3 -2 6 -13 5 -11 0 -14 -3 -6 -6z"/>
<path d="M2383 1963 c9 -2 23 -2 30 0 6 3 -1 5 -18 5 -16 0 -22 -2 -12 -5z"/>
<path d="M3332 2690 c0 -14 2 -19 5 -12 2 6 2 18 0 25 -3 6 -5 1 -5 -13z"/>
<path d="M3412 2685 c0 -16 2 -22 5 -12 2 9 2 23 0 30 -3 6 -5 -1 -5 -18z"/>
<path d="M3401 2634 c0 -11 3 -14 6 -6 3 7 2 16 -1 19 -3 4 -6 -2 -5 -13z"/>
<path d="M3377 2558 c-9 -29 -15 -54 -13 -56 2 -2 12 20 21 48 9 28 15 53 13
55 -2 3 -12 -19 -21 -47z"/>
<path d="M3257 2475 c-9 -19 -15 -35 -12 -35 7 0 37 61 33 66 -3 2 -12 -12
-21 -31z"/>
<path d="M3332 2445 c-12 -25 -20 -45 -17 -45 7 0 47 81 43 86 -3 2 -14 -17
-26 -41z"/>
<path d="M3266 2334 c-48 -71 -149 -172 -220 -220 -56 -37 -80 -62 -28 -29
101 65 225 188 275 274 30 51 13 35 -27 -25z"/>
<path d="M3061 2350 c0 -8 4 -22 9 -30 12 -18 12 -2 0 25 -6 13 -9 15 -9 5z"/>
<path d="M3105 2268 l-70 -73 73 70 c39 38 72 71 72 72 0 8 -11 -2 -75 -69z"/>
<path d="M3010 2296 c0 -2 8 -10 18 -17 15 -13 16 -12 3 4 -13 16 -21 21 -21
13z"/>
<path d="M2940 2050 c-19 -11 -31 -19 -27 -20 11 0 67 29 67 35 0 7 -1 7 -40
-15z"/>
<path d="M2728 2053 c7 -3 16 -2 19 1 4 3 -2 6 -13 5 -11 0 -14 -3 -6 -6z"/>
<path d="M2668 2043 c6 -2 18 -2 25 0 6 3 1 5 -13 5 -14 0 -19 -2 -12 -5z"/>
<path d="M2825 2004 c-33 -14 -46 -22 -30 -18 31 6 118 43 100 42 -5 0 -37
-11 -70 -24z"/>
<path d="M2690 1970 c-34 -7 -34 -7 -5 -8 17 0 41 4 55 8 33 11 0 11 -50 0z"/>
<path d="M1050 2910 c0 -5 7 -10 15 -10 12 0 15 -13 15 -55 0 -30 5 -55 10
-55 6 0 10 25 10 55 0 41 4 55 14 55 8 0 18 5 21 10 4 6 -12 10 -39 10 -25 0
-46 -4 -46 -10z"/>
<path d="M3935 2899 c15 -47 47 -109 56 -109 9 0 59 103 59 121 0 26 -20 3
-38 -43 l-20 -53 -22 53 c-22 50 -48 74 -35 31z"/>
<path d="M2480 1405 c0 -37 4 -65 10 -65 6 0 10 21 10 48 l0 47 20 -25 19 -25
25 24 26 24 0 -46 c0 -26 5 -47 10 -47 6 0 10 28 10 65 0 74 -12 83 -46 34
l-22 -30 -22 30 c-12 17 -26 31 -31 31 -5 0 -9 -29 -9 -65z"/>
<path d="M1720 1070 c0 -73 2 -80 19 -80 17 0 20 8 23 48 l3 47 34 -47 c20
-27 42 -48 53 -48 16 0 18 9 18 80 0 73 -2 80 -20 80 -17 0 -20 -7 -20 -52 l0
-53 -37 53 c-21 30 -44 52 -55 52 -16 0 -18 -9 -18 -80z"/>
<path d="M1964 1113 c-9 -21 -24 -57 -34 -80 -19 -42 -19 -43 1 -43 11 0 22 7
25 15 4 10 20 15 45 15 28 0 39 -4 39 -15 0 -9 9 -15 21 -15 13 0 19 5 16 13
-48 121 -62 147 -79 147 -13 0 -24 -13 -34 -37z m46 -39 c0 -8 -7 -14 -15 -14
-17 0 -18 2 -9 24 7 18 24 12 24 -10z"/>
<path d="M2154 1073 c45 -107 62 -109 104 -9 37 88 37 86 16 86 -9 0 -25 -23
-41 -57 l-25 -58 -25 58 c-17 39 -31 57 -43 57 -16 0 -14 -9 14 -77z"/>
<path d="M2345 1070 c0 -79 0 -80 25 -80 25 0 25 1 25 80 0 79 0 80 -25 80
-25 0 -25 -1 -25 -80z"/>
<path d="M2450 1070 c0 -64 3 -80 15 -80 11 0 15 12 15 45 0 48 12 58 30 25
15 -28 35 -25 59 8 l20 27 1 -52 c0 -40 4 -53 15 -53 12 0 15 16 15 80 0 92
-9 99 -55 44 l-31 -36 -24 36 c-14 20 -33 36 -42 36 -16 0 -18 -10 -18 -80z"/>
<path d="M2670 1070 l0 -80 50 0 c38 0 50 4 50 15 0 10 -10 15 -30 15 -23 0
-30 4 -30 20 0 15 7 20 25 20 16 0 25 6 25 15 0 9 -9 15 -25 15 -16 0 -25 6
-25 15 0 10 10 15 30 15 20 0 30 5 30 15 0 11 -12 15 -50 15 l-50 0 0 -80z"/>
<path d="M2830 1070 c0 -64 3 -80 15 -80 11 0 15 12 15 52 l0 52 38 -52 c20
-28 45 -52 55 -52 15 0 17 10 17 81 0 71 -2 80 -17 77 -13 -2 -19 -16 -23 -48
l-5 -45 -33 48 c-49 70 -62 64 -62 -33z"/>
<path d="M3020 1135 c0 -8 9 -15 20 -15 18 0 20 -7 20 -65 0 -51 3 -65 15 -65
12 0 15 14 15 65 0 58 2 65 20 65 11 0 20 7 20 15 0 12 -13 15 -55 15 -42 0
-55 -3 -55 -15z"/>
<path d="M3180 1070 l0 -80 50 0 c38 0 50 4 50 15 0 10 -11 15 -35 15 -28 0
-35 4 -35 20 0 16 7 20 30 20 20 0 30 5 30 15 0 10 -10 15 -30 15 -20 0 -30 5
-30 15 0 10 11 15 35 15 24 0 35 5 35 15 0 11 -12 15 -50 15 l-50 0 0 -80z"/>
<path d="M1942 739 c1 -38 2 -40 5 -11 4 32 5 33 19 15 14 -17 14 -17 26 2 12
19 13 18 19 -15 l6 -35 2 43 c1 46 -5 52 -24 25 -12 -17 -14 -17 -34 1 l-21
19 2 -44z"/>
<path d="M2096 771 c-3 -4 6 -6 19 -3 14 2 25 6 25 8 0 8 -39 4 -44 -5z"/>
<path d="M2222 740 c0 -38 1 -41 7 -15 l6 29 22 -29 22 -30 -1 45 c-1 32 -2
37 -5 16 l-5 -29 -23 29 -24 29 1 -45z"/>
<path d="M2364 768 c-4 -7 2 -18 14 -26 25 -16 28 -29 10 -35 -8 -2 -7 -3 2
-3 23 2 24 33 1 41 -26 8 -27 22 -3 28 15 4 15 5 0 6 -9 0 -20 -4 -24 -11z"/>
<path d="M2580 760 c0 -11 4 -20 10 -20 5 0 7 6 4 14 -3 8 2 16 13 19 14 4 14
5 -4 6 -17 1 -23 -5 -23 -19z"/>
<path d="M2730 776 c0 -2 -7 -20 -15 -40 -8 -20 -13 -36 -10 -36 3 0 12 15 20
33 l14 32 12 -33 c6 -18 13 -31 16 -28 7 7 -20 76 -29 76 -4 0 -8 -2 -8 -4z"/>
<path d="M2852 740 c1 -41 1 -42 7 -12 l6 32 20 -30 c27 -41 35 -38 33 13 -1
38 -2 39 -5 8 l-4 -34 -29 34 -29 34 1 -45z"/>
<path d="M3005 743 c-19 -46 -13 -54 8 -11 9 18 17 30 18 26 1 -5 2 -11 3 -15
3 -13 25 -48 26 -40 0 12 -28 77 -34 77 -3 0 -13 -16 -21 -37z"/>
<path d="M2096 733 c-8 -21 7 -36 30 -30 16 4 15 5 -3 6 -13 0 -23 6 -23 11 0
6 10 15 23 20 22 9 22 9 1 9 -12 1 -25 -7 -28 -16z"/>
<path d="M2615 728 c6 -14 2 -18 -16 -19 -19 -1 -20 -2 -5 -6 25 -7 44 13 27
30 -10 10 -11 9 -6 -5z"/>
</g>
</svg>
